<svg version="1.1" id="Capa_1" xmlns="http://www.w3.org/2000/svg" x="0" y="0" viewBox="0 0 448 448" xml:space="preserve"><path d="M239.864 0h-48.528c-4.48 0-8.752 1.872-11.712 5.216C173.768 11.808 165.32 16 155.88 16s-17.904-4.192-23.744-10.784C129.16 1.872 124.888 0 120.408 0H72.12c-4.416 0-8 3.584-8 8v80c0 4.416 3.584 8 8 8h48.288c4.48 0 8.752-1.872 11.712-5.216C137.976 84.192 146.424 80 155.88 80c32 0 35.984 37.744 35.984 48v64c-16.752 41.632-20.208 61.776-15.744 112 8.08 90.688-.624 95.104-.8 112.944-.176 17.84 9.984 31.056 22.304 31.056h53.008c12.32 0 22.464-13.216 22.304-31.056-.176-17.84-8.88-22.256-.8-112.944 4.496-50.448.688-69.968-16.256-112v-64c0-28.16 16.56-48 48.256-48 32 0 49.744 9.184 63.744 32h16C383.864 47.952 288.072 0 239.864 0zm16.32 302.576c-8.208 92.224.592 98.512.736 114.512.048 4.416-2.416 14.912-6.288 14.912h-53.008c-3.888 0-6.336-10.496-6.304-14.896.16-16 8.944-22.336.736-114.512-3.936-44.128-1.296-62.496 10.96-94.576h42.208c12.256 32.064 14.896 50.432 10.96 94.56zM304.12 64c-39.04 0-64.256 25.12-64.256 64v64h-32v-64c0-30.832-16.272-64-51.984-64-13.584 0-26.592 5.888-35.456 16h-40.56V15.968l40.304-.128C129.272 26.112 142.296 32 155.88 32s26.592-5.888 35.456-16h48.528c21.952 0 55.344 12.048 81.2 29.296 9.776 6.512 23.248 16.944 33.232 30.288C340.968 67.632 324.696 64 304.12 64z"/></svg>