<svg id="Capa_1" height="512" width="512" xmlns="http://www.w3.org/2000/svg"><path d="M494.398 167.687h-4.887L443.69 44.322c-4.012-10.801-14.448-18.058-25.97-18.058H94.279c-11.521 0-21.958 7.257-25.97 18.058l-45.82 123.365h-4.887C7.896 167.687 0 175.583 0 185.289v14.142c0 9.706 7.896 17.602 17.602 17.602h2.602v164.39c0 4.142 3.357 7.5 7.5 7.5s7.5-3.358 7.5-7.5v-164.39h117.76c6.59 0 12.786-2.566 17.447-7.227L256 124.215l85.591 85.591a24.51 24.51 0 0017.446 7.226h117.76v19.884c0 4.142 3.357 7.5 7.5 7.5s7.5-3.358 7.5-7.5v-19.884h2.602c9.705 0 17.602-7.896 17.602-17.602v-14.142c-.001-9.705-7.897-17.601-17.603-17.601zM82.37 49.544c1.84-4.953 6.626-8.28 11.909-8.28H417.72c5.283 0 10.069 3.328 11.909 8.28l43.881 118.143H369.257l-95.811-95.81c-4.66-4.66-10.855-7.227-17.446-7.227s-12.786 2.566-17.446 7.227l-95.811 95.81H38.489zM497 199.431a2.605 2.605 0 01-2.602 2.602H359.037a9.608 9.608 0 01-6.84-2.833l-90.894-90.894a7.5 7.5 0 00-10.608 0L159.802 199.2a9.612 9.612 0 01-6.841 2.833H17.602A2.605 2.605 0 0115 199.431v-14.142a2.605 2.605 0 012.602-2.602H145.85c1.989 0 3.896-.79 5.304-2.197l98.008-98.007c1.826-1.827 4.255-2.833 6.839-2.833s5.013 1.006 6.839 2.833l98.008 98.007a7.5 7.5 0 005.304 2.197H494.4a2.605 2.605 0 012.602 2.602v14.142z"/><path d="M450.962 425.126a7.5 7.5 0 007.5-7.5V284.285a7.5 7.5 0 00-7.5-7.5H349.945a7.5 7.5 0 00-7.5 7.5v133.341a7.5 7.5 0 007.5 7.5zm-7.5-47.325h-35.509v-35.508h35.509zm-50.509 0h-35.508v-35.508h35.508zm50.509 32.325h-86.017v-17.325h86.017zm0-82.834h-35.509v-35.508h35.509zm-50.509-35.507v35.508h-35.508v-35.508zM162.055 425.126a7.5 7.5 0 007.5-7.5V284.285a7.5 7.5 0 00-7.5-7.5H61.038a7.5 7.5 0 00-7.5 7.5v133.341a7.5 7.5 0 007.5 7.5zm-7.5-47.325h-35.508v-35.508h35.508zm-50.508 0H68.538v-35.508h35.509zm50.508 32.325H68.538v-17.325h86.017zm0-82.834h-35.508v-35.508h35.508zm-50.508-35.507v35.508H68.538v-35.508zm176.197 17.325h-48.488a7.5 7.5 0 00-7.5 7.5v32.325a7.5 7.5 0 007.5 7.5h48.488a7.5 7.5 0 007.5-7.5V316.61a7.5 7.5 0 00-7.5-7.5zm-7.5 32.325h-33.488V324.11h33.488zm23.081-126.852c0-21.959-17.865-39.825-39.825-39.825s-39.825 17.866-39.825 39.825S234.04 254.409 256 254.409s39.825-17.866 39.825-39.826zm-64.65 0c0-13.688 11.137-24.825 24.825-24.825s24.825 11.137 24.825 24.825-11.137 24.826-24.825 24.826-24.825-11.137-24.825-24.826z"/><path d="M504.5 436.39h-12.703V272c0-4.142-3.357-7.5-7.5-7.5s-7.5 3.358-7.5 7.5v164.39H320.069V284.285a7.5 7.5 0 00-7.5-7.5H199.431a7.5 7.5 0 00-7.5 7.5V436.39H35.203v-19.884c0-4.142-3.357-7.5-7.5-7.5s-7.5 3.358-7.5 7.5v19.884H7.5a7.5 7.5 0 00-7.5 7.5v34.346a7.5 7.5 0 007.5 7.5h497a7.5 7.5 0 007.5-7.5V443.89a7.5 7.5 0 00-7.5-7.5zm-297.569-54.701h10.684c4.143 0 7.5-3.358 7.5-7.5s-3.357-7.5-7.5-7.5h-10.684v-74.904h98.139V436.39h-98.139zM497 470.736H15V451.39h482z"/></svg>