<svg xmlns="http://www.w3.org/2000/svg" width="512" height="512"><path d="M472 104h-16V88a8 8 0 00-8-8h-16V64a8 8 0 00-8-8H40a8 8 0 00-8 8v16H16a8 8 0 00-8 8v48a8 8 0 008 8h16v16a8 8 0 008 8h16v56a24.006 24.006 0 0032 22.63V272a24 24 0 0048 0v-65.37A24.006 24.006 0 00168 184v-16h256a8 8 0 008-8v-16h16a8 8 0 008-8v-16h16a16.021 16.021 0 0116 16v64a16.021 16.021 0 01-16 16H256a8 8 0 00-8 8v32h-8a8 8 0 00-8 8v16a8 8 0 00-8 8v192a24.032 24.032 0 0024 24h16a24.032 24.032 0 0024-24V288a8 8 0 00-8-8v-16a8 8 0 00-8-8h-8v-24h208a32.036 32.036 0 0032-32v-64a32.036 32.036 0 00-32-32zM32 128h-8V96h8zm384 24H160a8 8 0 00-8 8v24a8 8 0 01-16 0 8 8 0 00-16 0v88a8 8 0 01-16 0v-48a8 8 0 00-16 0 8 8 0 01-16 0v-64a8 8 0 00-8-8H48V72h368zm24-24h-8V96h8zM248 272h16v8h-16zm24 24v184a8.011 8.011 0 01-8 8h-16a8.011 8.011 0 01-8-8V296z"/><path d="M96 152a8 8 0 00-8 8v40a8 8 0 0016 0v-40a8 8 0 00-8-8zm32-8a8 8 0 00-8 8v8a8 8 0 0016 0v-8a8 8 0 00-8-8z"/></svg>