<svg version="1.1" id="Capa_1" xmlns="http://www.w3.org/2000/svg" x="0" y="0" viewBox="0 0 480 480" xml:space="preserve"><path d="M384 267.998v-8c0-13.255-10.745-24-24-24-13.228.066-23.934 10.772-24 24v8h-28.168A83.043 83.043 0 00292.8 253.67c-1.6-1.2-3.2-2.32-4.8-3.352v-38.32h16c13.228-.066 23.934-10.772 24-24 0-13.255-10.745-24-24-24h-32v-16h16a8 8 0 008-8v-24h48c13.255 0 24-10.745 24-24s-10.745-24-24-24H136c-13.255 0-24 10.745-24 24s10.745 24 24 24h48v24a8 8 0 008 8h16v16h-32c-13.228.066-23.934 10.772-24 24 0 13.255 10.745 24 24 24h16v38.32a71.375 71.375 0 00-4.744 3.32 82.772 82.772 0 00-15.088 14.36H144v-8c-.066-13.228-10.772-23.934-24-24-13.255 0-24 10.745-24 24v8H0v112h96v8c0 13.255 10.745 24 24 24s24-10.745 24-24v-8h28.184c30.847 37.454 86.216 42.809 123.67 11.962a87.805 87.805 0 0011.962-11.962H336v8c0 13.255 10.745 24 24 24s24-10.745 24-24v-8h96v-112h-96zm-288 96H16v-80h80v80zm32 24a8 8 0 01-16 0v-128a8 8 0 018-8 7.79 7.79 0 015.696 2.448 7.656 7.656 0 012.304 5.552v128zm8-288a8 8 0 010-16h208a8 8 0 010 16H136zm64 32v-16h80v16h-80zm56 16v16h-32v-16h32zm-80 48a8 8 0 01-8-8 7.79 7.79 0 012.448-5.696 7.656 7.656 0 015.552-2.304h128a8 8 0 018 8 7.79 7.79 0 01-2.448 5.696 7.656 7.656 0 01-5.552 2.304H176zm160 168h-32.08a8.002 8.002 0 00-6.4 3.2c-23.77 31.767-68.793 38.25-100.56 14.48a71.86 71.86 0 01-14.48-14.48 8.002 8.002 0 00-6.4-3.2H144v-80h32.08a7.998 7.998 0 006.4-3.256A71.507 71.507 0 01204 261.75a7.997 7.997 0 004-6.952v-42.8h64v42.8a8 8 0 004 6.952 68.092 68.092 0 017.2 4.8 66.983 66.983 0 0114.224 14.224 7.998 7.998 0 006.4 3.256H336v79.968zm32 24a8 8 0 01-16 0v-128a7.79 7.79 0 012.448-5.696 7.656 7.656 0 015.552-2.304 8 8 0 018 8v128zm96-24h-80v-80h80v80z"/></svg>