<svg version="1.1" id="Capa_1" xmlns="http://www.w3.org/2000/svg" x="0" y="0" viewBox="0 0 512 512" xml:space="preserve"><path d="M501.818 90.997a15.116 15.116 0 00-10.993-9.234 15.115 15.115 0 00-13.756 4.116l-77.994 77.994-41.932-9.016-9.015-41.932 77.994-77.995a15.125 15.125 0 00-5.118-24.75c-53.547-21.234-114.462-8.644-155.187 32.078-19.604 19.604-33.066 44.226-38.93 71.206a144.556 144.556 0 001.991 69.544L20.734 391.153C7.363 404.523 0 422.3 0 441.209s7.363 36.686 20.735 50.057C34.105 504.637 51.882 512 70.791 512c18.908 0 36.686-7.363 50.056-20.734l208.145-208.144a144.54 144.54 0 0069.543 1.99c26.98-5.864 51.603-19.327 71.207-38.93 40.721-40.723 53.311-101.636 32.076-155.185zm-53.464 133.799c-30.845 30.845-77.377 41.402-118.55 26.89a15.124 15.124 0 00-15.719 3.57L99.46 469.88c-7.658 7.659-17.841 11.877-28.671 11.877-10.831 0-21.012-4.218-28.671-11.877-7.658-7.659-11.876-17.841-11.876-28.671 0-10.83 4.218-21.012 11.877-28.671l214.624-214.624a15.124 15.124 0 003.57-15.719c-14.511-41.171-3.956-87.705 26.889-118.55a113.902 113.902 0 0199.286-31.853l-65.57 65.57a15.12 15.12 0 00-4.092 13.871l12.799 59.533a15.123 15.123 0 0011.605 11.605l59.534 12.8a15.121 15.121 0 0013.872-4.092l65.569-65.57a113.922 113.922 0 01-31.851 99.287z"/></svg>