<svg version="1.1" id="Capa_1" xmlns="http://www.w3.org/2000/svg" x="0" y="0" viewBox="0 0 467.528 467.528" xml:space="preserve"><path d="M431.095 409.6l-71.6-124c28-30.4 44.8-70.8 44.8-115.2 0-47.2-19.2-89.6-50-120.4s-73.2-50-120.4-50-89.6 19.2-120.4 50c-30.8 30.8-50 73.2-50 120.4 0 44.4 16.8 84.8 44.8 115.2l-71.6 124c-1.2 2-1.6 4.8-.8 7.6 1.6 4.4 6.4 6.4 10.8 4.8l57.2-22.8 8.8 61.2c.4 2.4 1.6 4.8 4 6 4 2.4 9.2.8 11.6-3.2l72.4-125.2c10.4 2 21.6 3.2 32.4 3.2 11.2 0 22-1.2 32.4-3.2l72.4 125.2c2.4 4 7.6 5.2 11.6 3.2 2.4-1.2 3.6-3.6 4-6l8.8-61.2 57.2 22.8c4.4 1.6 9.2-.4 10.8-4.8 2.4-2.8 2-5.6.8-7.6zm-304.4 24l-7.2-47.6c-.8-4.4-4.8-7.6-9.6-7.2-.8 0-1.6.4-2.4.8l-44.4 17.6 57.6-99.6c18 16 39.6 28.4 63.6 35.6l-57.6 100.4zm107.2-109.6c-42.4 0-80.8-17.2-108.4-44.8-27.6-27.6-44.8-66-44.8-108.4 0-42.4 17.2-80.8 44.8-108.4 27.6-28.4 66-45.6 108.4-45.6 42.4 0 80.8 17.2 108.4 44.8 27.6 27.6 44.8 66 44.8 108.4 0 42.4-17.2 80.8-44.8 108.4-27.6 28.4-66 45.6-108.4 45.6zm126.4 55.6c-.8-.4-1.6-.8-2.4-.8-4.4-.8-8.8 2.4-9.6 7.2l-7.2 47.6-57.6-100.4c24-7.2 45.6-19.6 63.6-35.6l57.6 99.6-44.4-17.6z"/><path d="M312.295 140.8c-2-2.8-4.4-4.8-7.2-6s-6-2-9.2-1.6h-33.2l-10.4-32.8c-1.6-4.8-5.2-8.8-9.2-11.2-2.8-1.2-5.6-2-8.8-2s-6 .8-8.8 2c-4.4 2.4-7.6 6-9.2 11.2l-10.4 32.8h-33.2c-3.2-.4-6.4.4-9.2 1.6s-5.2 3.2-7.2 6c-3.2 4.4-4 9.2-3.2 14 .8 4.8 3.2 9.2 7.6 12.4l28 20-10.8 32.8c0 .4 0 .8-.4.8-.8 2.4-.8 5.2-.4 8s1.6 5.6 3.6 8c3.2 4.4 7.6 6.8 12.4 7.6s10-.4 14-3.6l28-20.4 28 20.4c4.4 3.2 9.2 4 14 3.6 4.8-.8 9.2-3.2 12.4-7.6 2-2.4 2.8-5.2 3.6-8 .4-2.8.4-5.2-.4-8 0-.4 0-.8-.4-.8l-10.8-32.8 28-20c4.4-3.2 6.8-7.6 7.6-12.4-.4-4.4-1.6-9.6-4.8-14zm-14 12.8l-.4.4-32.4 23.6c-2.8 2-4.4 6-3.2 9.2l12.4 38v1.6c0 .4 0 .8-.4.8-.4.4-.8.8-1.6.8-.4 0-1.2 0-1.6-.4l-32.8-24c-1.6-1.2-3.2-1.6-5.2-1.6-1.6 0-3.6.4-5.2 1.6l-32.8 24c-.4.4-1.2.4-1.6.4-.4 0-1.2-.4-1.6-.8-.4-.4-.4-.8-.4-.8v-1.6l12.4-38c1.2-3.6 0-7.2-3.2-9.2l-30.8-23.6-.4-.4c-.4-.4-.8-.8-.8-1.2 0-.4 0-1.2.4-1.6 0 0 0-.4.4-.4.4-.4.4-.4.8-.4s.8-.4 1.2-.4h40.4c3.6 0 6.8-2.4 8-6l12.4-38.4c0-.4.4-1.2 1.2-1.2.4 0 .8-.4.8-.4.4 0 .8 0 .8.4l1.2 1.2 12.4 38.4c1.2 3.2 4.4 6 8 6h40.4c.4 0 .8 0 1.2.4.4 0 .4.4.8.4 0 0 0 .4.4.4.4.4.4.8.4 1.6-.8.4-1.2.8-1.6 1.2z"/><path d="M327.895 76.4c-24-24-57.2-38.8-94-38.8s-70 14.8-94 38.8-38.8 57.2-38.8 94 14.8 70 38.8 94 57.2 38.8 94 38.8 70-14.8 94-38.8 38.8-57.2 38.8-94-14.8-70-38.8-94zm-11.6 176c-21.2 21.2-50.4 34-82.4 34s-61.2-13.2-82-34c-21.2-21.2-34-50-34-82s13.2-61.2 34-82c20.8-21.2 50-34.4 82-34.4s61.2 13.2 82 34c21.2 21.2 34 50 34 82s-12.8 61.6-33.6 82.4z"/></svg>