<svg version="1.1" id="Capa_1" xmlns="http://www.w3.org/2000/svg" x="0" y="0" viewBox="0 0 512 512" xml:space="preserve"><path d="M504.981 150.787a19.997 19.997 0 00-21.736-2.769l-109.444 53.28L271.109 82.896a19.998 19.998 0 00-30.218 0L138.199 201.297l-109.444-53.28a20.001 20.001 0 00-27.89 23.8l76 250A19.999 19.999 0 0096 436h320a19.998 19.998 0 0019.134-14.182l76-250a19.998 19.998 0 00-6.153-21.031zM401.175 396H110.823L52.472 204.052l82.022 39.931a20 20 0 0023.863-4.878L256 126.525l97.644 112.58a19.998 19.998 0 0023.862 4.878l82.022-39.931L401.175 396z"/></svg>