<svg version="1.1" id="Layer_1" xmlns="http://www.w3.org/2000/svg" x="0" y="0" viewBox="0 0 297 297" xml:space="preserve"><path d="M147.655 71.797c-17.947 0-32.548 14.601-32.548 32.548 0 17.947 14.601 32.548 32.548 32.548 17.947 0 32.548-14.601 32.548-32.548 0-17.947-14.6-32.548-32.548-32.548zm0 49.779c-9.501 0-17.231-7.73-17.231-17.231 0-9.501 7.73-17.231 17.231-17.231 9.501 0 17.231 7.73 17.231 17.231 0 9.501-7.73 17.231-17.231 17.231z"/><path d="M245.437 183.301c-9.288-14.255-20.467-20.807-26.304-23.446 3.134-20.065 4.186-40.095 1.127-57.195-11.111-62.118-64.927-99.438-67.212-100.997a9.577 9.577 0 00-10.786 0c-2.285 1.558-56.101 38.879-67.211 100.996-3.096 17.312-1.979 37.627 1.246 57.941-6.122 3.043-16.221 9.637-24.734 22.7-16 24.555-18.687 59.459-7.985 103.742a9.575 9.575 0 0014.74 5.633l46.663-32.181a287.586 287.586 0 002.273 5.549 9.573 9.573 0 008.81 5.828h22.018v15.556a9.573 9.573 0 0019.146 0v-15.556h22.018a9.573 9.573 0 008.81-5.828c.237-.558 1.193-2.828 2.637-6.464l47.989 33.096a9.58 9.58 0 008.852 1.062 9.575 9.575 0 005.888-6.695c10.701-44.282 8.015-79.186-7.985-103.741zM147.655 21.617c6.194 5.032 16.822 14.516 27.123 27.684h-54.246c10.303-13.171 20.932-22.654 27.123-27.684zm-88.39 247.148c-10.448-57.725 9.367-80.269 20.823-88.232 5.157 23.501 12.272 45.624 17.937 61.501l-38.76 26.731zm113.526-16.04h-15.563V176.86a9.573 9.573 0 00-19.146 0v75.865h-15.567c-8.574-21.734-37.118-99.175-28.618-146.695 2.785-15.569 8.839-29.477 16.051-41.413h75.413c7.212 11.936 13.267 25.844 16.051 41.413 8.489 47.465-20.048 124.948-28.621 146.695zm64.945 16.04l-40.116-27.666c5.688-16.028 12.744-38.143 17.816-61.546 11.11 7.005 33.212 28.918 22.3 89.212z"/></svg>