<svg id="Layer_1" enable-background="new 0 0 512 512" height="512" viewBox="0 0 512 512" width="512" xmlns="http://www.w3.org/2000/svg"><g><path d="m256 270.158c8.822 0 16 7.178 16 16 0 4.418 3.582 8 8 8s8-3.582 8-8c0-14.883-10.214-27.426-24-30.987v-9.013c0-4.418-3.582-8-8-8s-8 3.582-8 8v9.013c-13.786 3.562-24 16.104-24 30.987 0 17.645 14.355 32 32 32 8.822 0 16 7.178 16 16s-7.178 16-16 16-16-7.178-16-16c0-4.418-3.582-8-8-8s-8 3.582-8 8c0 14.883 10.214 27.426 24 30.987v9.013c0 4.418 3.582 8 8 8s8-3.582 8-8v-9.013c13.786-3.562 24-16.104 24-30.987 0-17.645-14.355-32-32-32-8.822 0-16-7.178-16-16s7.178-16 16-16z"/><path d="m256 206.158c-57.346 0-104 46.654-104 104s46.654 104 104 104 104-46.654 104-104-46.654-104-104-104zm0 192c-48.523 0-88-39.477-88-88s39.477-88 88-88 88 39.477 88 88-39.477 88-88 88z"/><path d="m487.063 174.158-5.114-40.913c-1.656-13.25-13.79-22.631-27.134-20.792l-11.581 1.656-7.522-30.087c-3.212-12.855-16.345-20.899-29.603-17.332l-383.32 107.499c-12.673.633-22.789 11.142-22.789 23.969v224c0 13.233 10.767 24 24 24h464c13.233 0 24-10.767 24-24v-224c0-12.394-9.596-24-24.937-24zm-30.023-45.861c4.439-.608 8.482 2.524 9.031 6.933l4.866 38.929h-334.515zm-46.69-46.179c4.327-1.162 8.753 1.439 9.841 5.785l7.121 28.484-284.027 40.627zm85.65 340.04c0 4.411-3.589 8-8 8h-464c-4.411 0-8-3.589-8-8v-224c0-4.405 3.58-7.99 7.983-7.999 2.534-.005-39.895-.001 464.017-.001 4.411 0 8 3.589 8 8z"/><path d="m472 230.158c-8.822 0-16-7.178-16-16 0-4.418-3.582-8-8-8h-104c-4.418 0-8 3.582-8 8s3.582 8 8 8h97.013c2.9 11.229 11.759 20.087 22.987 22.987v130.025c-11.229 2.9-20.087 11.759-22.987 22.987h-97.013c-4.418 0-8 3.582-8 8s3.582 8 8 8h104c4.418 0 8-3.582 8-8 0-8.822 7.178-16 16-16 4.418 0 8-3.582 8-8v-144c0-4.417-3.582-7.999-8-7.999z"/><path d="m168 398.158h-97.013c-2.9-11.229-11.759-20.087-22.987-22.987v-130.026c11.229-2.9 20.087-11.759 22.987-22.987h97.013c4.418 0 8-3.582 8-8s-3.582-8-8-8h-104c-4.418 0-8 3.582-8 8 0 8.822-7.178 16-16 16-4.418 0-8 3.582-8 8v144c0 4.418 3.582 8 8 8 8.822 0 16 7.178 16 16 0 4.418 3.582 8 8 8h104c4.418 0 8-3.582 8-8s-3.582-8-8-8z"/><path d="m72 310.158c0 13.233 10.767 24 24 24s24-10.767 24-24-10.767-24-24-24-24 10.767-24 24zm32 0c0 4.411-3.589 8-8 8s-8-3.589-8-8 3.589-8 8-8 8 3.589 8 8z"/><path d="m440 310.158c0-13.233-10.767-24-24-24s-24 10.767-24 24 10.767 24 24 24 24-10.766 24-24zm-32 0c0-4.411 3.589-8 8-8s8 3.589 8 8-3.589 8-8 8-8-3.589-8-8z"/></g></svg>