<svg xmlns="http://www.w3.org/2000/svg" width="46" height="55"><path fill-rule="evenodd" fill="#1C3E9B" d="M45.95 45.213c-.063.176-1.056 2.695-6.013 4.723a2.473 2.473 0 00-1.114-.785 2.442 2.442 0 001.289-1.04c.439-.73.452-1.641.038-2.381-1.279-2.279-3.722-3.694-6.378-3.694h-.003a7.296 7.296 0 00-6.03 3.162h-9.485c-1.331-1.957-3.572-3.162-6.043-3.162-2.658.004-5.098 1.427-6.372 3.714a2.372 2.372 0 00.043 2.38c.296.488.759.853 1.292 1.038-.429.151-.81.42-1.097.774-4.97-2.03-5.964-4.553-6.029-4.729a.854.854 0 01-.038-.419c.233-1.421 1.547-8.603 4.552-10.587 1.775-1.173 8.071-4.497 10.695-5.872a.884.884 0 01.946.08c1.391 1.072 2.915 1.793 4.529 2.146a.86.86 0 01.623.528l1.644 4.248 1.645-4.248a.861.861 0 01.622-.528c1.615-.353 3.139-1.074 4.53-2.146a.881.881 0 01.944-.08l.045.023c2.657 1.391 8.876 4.649 10.659 5.854 2.611 1.764 3.913 6.728 4.545 10.581a.847.847 0 01-.039.42zM22.999 29.609c-3.695 0-12.383-4.359-12.383-14.804 0-1.457.037-2.865.159-4.195.201-2.618.748-4.938 2.11-6.716 1.747-2.418 4.803-3.895 10.114-3.895 5.314 0 8.369 1.478 10.115 3.896 1.362 1.778 1.909 4.098 2.11 6.715.122 1.329.159 2.737.159 4.194 0 10.446-8.689 14.805-12.384 14.805zM18.957 5.423l.902 2.234c2.33-.645 3.951-.645 6.28 0l.902-2.234c-2.913-.864-5.171-.864-8.084 0zm14.584 7.116c-.143.306-.75 1.482-1.688 1.593-1.078.126-2.868-3.745-8.854-3.754-5.985.009-7.775 3.88-8.854 3.754-.937-.111-1.544-1.287-1.687-1.593-.028.75-.039 1.509-.039 2.266 0 5.105 2.3 8.269 4.23 10.024 2.43 2.211 5.13 3.013 6.351 3.013 1.22 0 3.919-.802 6.351-3.013 1.929-1.755 4.229-4.919 4.229-10.024 0-.757-.011-1.516-.039-2.266zM7.981 47.96a.309.309 0 01-.265-.15.3.3 0 01-.005-.302 5.135 5.135 0 014.493-2.642 5.136 5.136 0 014.764 3.19h12.057a5.12 5.12 0 014.754-3.191c1.879 0 3.6 1.007 4.502 2.628a.302.302 0 01-.005.302.308.308 0 01-.266.15l-4.571.007c-.081.191-.235.72-.233 1.981.001 1.261.157 1.789.239 1.98l4.572-.007h.001c.109 0 .21.057.266.149a.306.306 0 01.005.303A5.139 5.139 0 0133.796 55h-.008c-2.155 0-4-1.324-4.757-3.19H16.973a5.06 5.06 0 01-1.13 1.7 5.128 5.128 0 01-3.623 1.491h-.008a5.138 5.138 0 01-4.493-2.629.302.302 0 01.004-.302.31.31 0 01.266-.15l4.571-.007c.081-.191.235-.72.233-1.981-.002-1.261-.157-1.79-.238-1.98l-4.574.008z"/></svg>