<svg version="1.1" id="Capa_1" xmlns="http://www.w3.org/2000/svg" x="0" y="0" viewBox="0 0 512 512" xml:space="preserve"><path d="M459.36 100.64l-96-96A16.001 16.001 0 00352 0H96C69.49 0 48 21.49 48 48v416c0 26.51 21.49 48 48 48h320c26.51 0 48-21.49 48-48V112a15.999 15.999 0 00-4.64-11.36zM432 464c0 8.837-7.163 16-16 16H96c-8.837 0-16-7.163-16-16V48c0-8.837 7.163-16 16-16h240v64c0 17.673 14.327 32 32 32h64v336z"/><path d="M368 384h32v32h-32zM112 224h288v32H112zm0 80h288v32H112zm0 80h224v32H112z"/></svg>