<svg version="1.1" id="Capa_1" xmlns="http://www.w3.org/2000/svg" x="0" y="0" width="474.521" height="474.521" xml:space="preserve"><path d="M237.263 60.498c-4.65 3.535-68.417 50.977-150.197 67.352-10.781 188.716 150.095 286.419 150.197 286.363.102.056 160.979-97.646 150.198-286.368-81.785-16.37-150.198-67.347-150.198-67.347z"/><path d="M440.632 97.439a12.618 12.618 0 00-10.117-11.649C330.787 65.828 245.64 3.124 244.8 2.498a12.6 12.6 0 00-15.167.08c-3.358 2.554-83.385 62.755-185.621 83.218a12.62 12.62 0 00-10.121 11.65c-8.192 143.403 59.091 246.563 116.98 307.845 21.724 23.005 42.109 40.01 55.386 50.221 7.617 5.855 13.769 10.156 17.585 12.733 7.127 4.82 9.178 6.2 13.11 6.271.164.006.325.006.481.006 3.88 0 6.221-1.565 12.394-5.702 3.343-2.244 8.758-5.98 15.504-11.084 11.753-8.872 29.925-23.641 49.779-43.63 37.301-37.549 66.997-79.36 88.25-124.264 28.578-60.361 41.119-125.094 37.272-192.403zM330.16 359.379c-38.295 48.021-77.872 77.274-92.897 87.491-15.022-10.217-54.599-39.464-92.909-87.514-59.926-75.164-88.739-159.527-85.713-250.893 86.318-19.494 156.141-64.586 178.688-80.349 22.851 15.74 93.877 61.128 178.554 80.342 3.027 91.378-25.784 175.754-85.723 250.923z"/></svg>