<svg id="Icons" height="512" viewBox="0 0 74 74" width="512" xmlns="http://www.w3.org/2000/svg"><path d="M42.994 66.014a1 1 0 01-.707-.293L12.079 35.513a1 1 0 01-.281-.863l3.486-22.075a1 1 0 01.832-.832L38.19 8.257a1 1 0 01.863.281l30.208 30.208a1 1 0 010 1.414L43.7 65.721a1 1 0 01-.706.293zM13.853 34.458L42.994 63.6 67.14 39.453 38 10.313l-20.854 3.292z"/><path d="M25.566 27.131a5.105 5.105 0 113.612-1.494 5.092 5.092 0 01-3.612 1.494zm0-8.213a3.108 3.108 0 102.2.911 3.088 3.088 0 00-2.2-.912zM5.807 35.423L4.54 32.705a1 1 0 01.031-.907L15.4 12.247l1.75.969L6.567 32.321l1.053 2.256zM23.5 72a1 1 0 01-.906-.577L7.616 39.3l1.813-.846 14.555 31.217 16.47-7.68.846 1.809-17.376 8.1a1 1 0 01-.424.1z"/><path d="M23.124 23.9a8.182 8.182 0 01-1.832-.225l.447-1.949c.824.188 2.325.387 3.12-.407.779-.779.776-2.409-.01-4.471a21.845 21.845 0 00-5-7.258C14.917 4.658 9.709 2.99 8.12 4.579s.079 6.8 5.011 11.729q.5.494 1 .952l-1.342 1.483q-.541-.49-1.072-1.021C6.138 12.145 3.984 5.886 6.705 3.165s8.98-.567 14.558 5.011a23.846 23.846 0 015.455 7.96c1.1 2.873.938 5.216-.444 6.6a4.263 4.263 0 01-3.15 1.164z"/></svg>