<svg id="OutlineExpand" height="512" viewBox="0 0 64 64" width="512" xmlns="http://www.w3.org/2000/svg"><path d="M2.08 43.608a1 1 0 00.786.898l3.485.752c.123.594.279 1.18.468 1.752L4.181 49.4a1 1 0 00-.231 1.171 19.996 19.996 0 001.596 2.785 1 1 0 001.129.383l3.387-1.091c.405.454.836.885 1.29 1.29l-1.091 3.387a1 1 0 00.383 1.129 19.996 19.996 0 002.785 1.596 1 1 0 001.171-.231l2.39-2.638c.573.188 1.159.345 1.753.468l.752 3.485c.093.431.458.75.897.786.532.042 1.065.08 1.608.08s1.076-.038 1.608-.08a1 1 0 00.898-.786l.752-3.485a15.815 15.815 0 001.753-.468l2.39 2.638a.999.999 0 001.171.231 20.097 20.097 0 002.785-1.596 1 1 0 00.383-1.129l-1.091-3.387c.454-.405.885-.836 1.29-1.289l3.387 1.091a.999.999 0 001.129-.383 19.996 19.996 0 001.596-2.785 1 1 0 00-.231-1.171l-2.638-2.39c.188-.573.345-1.159.468-1.753l3.485-.752c.431-.093.75-.458.786-.897.041-.533.079-1.066.079-1.609s-.038-1.076-.08-1.608a1 1 0 00-.786-.898l-3.485-.752a15.815 15.815 0 00-.468-1.753l2.638-2.39a1 1 0 00.231-1.171 20.097 20.097 0 00-1.596-2.785.999.999 0 00-1.129-.383l-3.387 1.091a16.022 16.022 0 00-1.29-1.29l1.091-3.387a1 1 0 00-.383-1.129 19.996 19.996 0 00-2.785-1.596.998.998 0 00-1.171.231l-2.39 2.638a16.099 16.099 0 00-1.753-.468l-.752-3.485a1.001 1.001 0 00-.897-.786 20.324 20.324 0 00-3.217 0 1 1 0 00-.898.786l-.752 3.485c-.594.123-1.18.279-1.752.468l-2.39-2.638a1 1 0 00-1.171-.231 19.996 19.996 0 00-2.785 1.596 1 1 0 00-.383 1.129l1.091 3.387c-.454.405-.885.836-1.29 1.29L6.675 30.26a.998.998 0 00-1.129.383 19.996 19.996 0 00-1.596 2.785 1 1 0 00.231 1.171l2.638 2.39a16.099 16.099 0 00-.468 1.753l-3.485.752c-.431.093-.75.458-.786.897C2.038 40.924 2 41.457 2 42s.038 1.076.08 1.608zm1.941-2.317l3.402-.735a1 1 0 00.776-.817c.15-.922.392-1.827.719-2.691a.999.999 0 00-.264-1.095l-2.569-2.328c.224-.429.458-.84.7-1.229l3.296 1.062c.39.125.82 0 1.081-.318a14.06 14.06 0 011.978-1.978c.318-.26.445-.689.318-1.081l-1.062-3.296c.389-.243.799-.477 1.229-.7l2.328 2.57c.277.305.713.41 1.096.264a13.874 13.874 0 012.69-.719 1 1 0 00.817-.776l.734-3.402c.471-.025.95-.026 1.419 0l.735 3.402a1 1 0 00.817.776c.922.15 1.827.392 2.691.719a.998.998 0 001.095-.264l2.328-2.569c.429.224.84.458 1.229.7l-1.062 3.296c-.126.392 0 .82.318 1.081a14.06 14.06 0 011.978 1.978.996.996 0 001.081.318l3.296-1.062c.243.389.477.799.7 1.228l-2.57 2.328a1 1 0 00-.264 1.096c.327.862.569 1.767.719 2.69a1 1 0 00.776.817l3.402.734c.013.235.022.472.022.71s-.008.475-.021.709l-3.402.735a1 1 0 00-.776.817 13.94 13.94 0 01-.719 2.691.999.999 0 00.264 1.095l2.569 2.328c-.224.429-.458.84-.7 1.229l-3.296-1.062a.995.995 0 00-1.081.318 14.114 14.114 0 01-1.978 1.978c-.318.26-.444.689-.318 1.08l1.062 3.296c-.389.243-.799.477-1.228.7l-2.328-2.57a1.004 1.004 0 00-1.096-.264c-.862.327-1.767.569-2.69.719a1 1 0 00-.817.776l-.734 3.402c-.471.025-.95.026-1.419 0l-.735-3.402a1 1 0 00-.817-.776 13.94 13.94 0 01-2.691-.719.998.998 0 00-1.095.264l-2.328 2.569a18.82 18.82 0 01-1.229-.7l1.062-3.296c.126-.392 0-.82-.318-1.081a14.06 14.06 0 01-1.978-1.978.999.999 0 00-1.081-.318l-3.296 1.062a17.705 17.705 0 01-.7-1.229l2.57-2.328a1 1 0 00.264-1.096 13.874 13.874 0 01-.719-2.69 1 1 0 00-.776-.817l-3.404-.732C4.009 42.475 4 42.238 4 42s.008-.475.021-.709zm50.198-25.056a1 1 0 00.693-.839c.06-.505.088-.962.088-1.396s-.028-.891-.087-1.396a1 1 0 00-.693-.839l-2.773-.871a8.679 8.679 0 00-.276-.668l1.344-2.575a1.002 1.002 0 00-.102-1.083 12.107 12.107 0 00-1.979-1.979 1.002 1.002 0 00-1.083-.103L46.774 5.83a9.089 9.089 0 00-.668-.275l-.871-2.773a1 1 0 00-.839-.693 11.062 11.062 0 00-2.793 0 1 1 0 00-.839.693l-.871 2.773c-.227.083-.45.175-.668.276L36.65 4.487a1.004 1.004 0 00-1.083.102 12.107 12.107 0 00-1.979 1.979 1 1 0 00-.103 1.083l1.343 2.575c-.1.218-.192.441-.275.668l-2.773.871a1 1 0 00-.693.839c-.059.505-.087.962-.087 1.396s.028.891.087 1.396a1 1 0 00.693.839l2.773.871c.083.227.175.45.276.668l-1.344 2.575c-.182.349-.142.773.102 1.083a12.107 12.107 0 001.979 1.979c.309.245.734.284 1.083.103l2.575-1.343c.218.1.441.192.668.275l.871 2.773a1 1 0 00.839.693c.507.06.964.088 1.398.088s.891-.028 1.396-.087a1 1 0 00.839-.693l.871-2.773c.227-.083.45-.175.668-.276l2.575 1.344a1 1 0 001.083-.102 12.107 12.107 0 001.979-1.979 1 1 0 00.103-1.083l-1.344-2.575c.101-.218.193-.441.276-.668zm-3.86-.884c-.316.1-.562.349-.658.667a7.043 7.043 0 01-.534 1.294.997.997 0 00-.006.936l1.269 2.432c-.237.263-.488.514-.75.75l-2.432-1.269a1 1 0 00-.936.006 7.043 7.043 0 01-1.294.534 1.003 1.003 0 00-.667.658l-.824 2.624a8.424 8.424 0 01-1.054 0l-.824-2.624a1.003 1.003 0 00-.667-.658 6.949 6.949 0 01-1.293-.534 1 1 0 00-.937-.006L36.32 21.43a10.206 10.206 0 01-.75-.75l1.269-2.432a1 1 0 00-.006-.936 7.043 7.043 0 01-.534-1.294 1.003 1.003 0 00-.658-.667l-2.624-.824a8.028 8.028 0 010-1.054l2.624-.824c.316-.1.562-.349.658-.667.136-.453.316-.888.534-1.293a1 1 0 00.006-.937L35.57 7.32c.237-.263.488-.514.75-.75l2.432 1.269c.293.153.645.15.936-.006a7.043 7.043 0 011.294-.534c.317-.095.567-.342.667-.658l.824-2.624a8.424 8.424 0 011.054 0l.824 2.624c.1.316.349.562.667.658.453.136.888.316 1.293.534a1 1 0 00.937.006L49.68 6.57c.263.237.514.488.75.75l-1.269 2.432a1 1 0 00.006.936c.218.407.398.842.534 1.294.095.317.342.567.658.667l2.624.824a8.028 8.028 0 010 1.054zm10.903 19.613l-1.718-.61a8.105 8.105 0 00-.337-.817l.781-1.645a.996.996 0 00-.116-1.044 10.064 10.064 0 00-1.719-1.72 1 1 0 00-1.045-.116l-1.646.781a7.987 7.987 0 00-.816-.336l-.611-1.718a1.002 1.002 0 00-.822-.658 9.215 9.215 0 00-2.427 0 .999.999 0 00-.822.658l-.61 1.718c-.279.098-.552.21-.817.337l-1.645-.781a1 1 0 00-1.044.116c-.639.5-1.218 1.078-1.72 1.719a1.002 1.002 0 00-.116 1.045l.781 1.646a7.987 7.987 0 00-.336.816l-1.718.611a1.002 1.002 0 00-.658.822c-.055.443-.081.84-.081 1.212s.026.768.08 1.213c.045.376.3.695.658.822l1.718.61c.098.279.21.552.337.817l-.781 1.645a.996.996 0 00.116 1.044c.5.639 1.078 1.218 1.719 1.72.298.233.704.278 1.045.116l1.646-.781c.264.126.537.239.816.336l.611 1.718c.127.357.446.612.822.658.445.056.841.082 1.213.082s.768-.026 1.213-.08a.999.999 0 00.822-.658l.61-1.718c.279-.098.552-.21.817-.337l1.645.781a.994.994 0 001.044-.116c.639-.5 1.218-1.078 1.72-1.719.233-.298.278-.703.116-1.045l-.781-1.646c.126-.264.239-.537.336-.816l1.718-.611c.357-.127.612-.446.658-.822.056-.445.082-.841.082-1.213s-.026-.768-.08-1.213a1 1 0 00-.658-.823zm-1.272 2.401l-1.585.563a1 1 0 00-.629.675 5.95 5.95 0 01-.555 1.347c-.16.283-.172.627-.033.921l.718 1.513c-.166.182-.34.356-.521.521l-1.513-.718a1.003 1.003 0 00-.921.033c-.42.238-.873.424-1.346.555a1.004 1.004 0 00-.676.629l-.563 1.585a6.837 6.837 0 01-.73 0l-.563-1.585a1 1 0 00-.675-.629 5.95 5.95 0 01-1.347-.555 1.008 1.008 0 00-.921-.033l-1.513.718a8.002 8.002 0 01-.521-.521l.718-1.513a1 1 0 00-.033-.921 5.954 5.954 0 01-.555-1.346 1.004 1.004 0 00-.629-.676l-1.585-.563a5.516 5.516 0 01-.002-.73l1.585-.564a.996.996 0 00.628-.675 5.98 5.98 0 01.556-1.347c.16-.283.172-.627.033-.921l-.718-1.513c.166-.182.34-.356.521-.521l1.513.718c.294.14.638.128.921-.033.42-.238.873-.424 1.346-.555.314-.087.566-.322.676-.629l.563-1.585c.242-.013.488-.013.73 0l.563 1.585a1 1 0 00.675.629 5.95 5.95 0 011.347.555.997.997 0 00.921.033l1.513-.718c.182.166.356.34.521.521l-.718 1.513a1 1 0 00.033.921c.238.42.424.873.555 1.346.087.314.322.566.629.676l1.585.563a5.57 5.57 0 01.002.731z"/><path d="M22 53c6.065 0 11-4.935 11-11s-4.935-11-11-11-11 4.935-11 11 4.935 11 11 11zm0-20c4.962 0 9 4.038 9 9s-4.038 9-9 9-9-4.038-9-9 4.038-9 9-9zM2.022 25.359l1.536 1.281A23.951 23.951 0 0122 18c.509 0 1.017.029 1.525.061l-1.232 1.232 1.414 1.414 3-3a.999.999 0 000-1.414l-3-3-1.414 1.414 1.359 1.359A26.03 26.03 0 0022 16a25.947 25.947 0 00-19.978 9.359zM43 9c-2.757 0-5 2.243-5 5s2.243 5 5 5 5-2.243 5-5-2.243-5-5-5zm0 8c-1.654 0-3-1.346-3-3s1.346-3 3-3 3 1.346 3 3-1.346 3-3 3zm9 16c-2.206 0-4 1.794-4 4s1.794 4 4 4 4-1.794 4-4-1.794-4-4-4zm0 6c-1.103 0-2-.897-2-2s.897-2 2-2 2 .897 2 2-.897 2-2 2zm9.196-33.98l-5-1a.998.998 0 00-1.177.784l-1 5 1.961.393.539-2.692A15.005 15.005 0 0158 14a14.84 14.84 0 01-3.29 9.375l1.561 1.251A17.049 17.049 0 0060 14c0-2.619-.605-5.201-1.756-7.531l2.56.512z"/></svg>