<svg height="644" viewBox="-17 0 483 483.026" width="644" xmlns="http://www.w3.org/2000/svg"><path d="M194.492 109.508a7.996 7.996 0 006.41-3.215 7.989 7.989 0 001.262-7.059 141.013 141.013 0 00-29.055-53.062 44.533 44.533 0 00-42.273-12.938 7.998 7.998 0 00-4.613 4.618 20.042 20.042 0 00-.977 3.687 30.64 30.64 0 00-.402 4.512v.129a48.293 48.293 0 0014.304 33.941 141.072 141.072 0 0053.04 29.035c.75.223 1.523.344 2.304.352zm-44-40.715a33.063 33.063 0 01-7.328-11.16v-.078a34.768 34.768 0 01-.918-2.633c-.137-.465-.234-.902-.351-1.36-.122-.457-.227-.8-.305-1.199-.082-.402-.098-.562-.153-.847a30.476 30.476 0 01-.488-3.618 33.069 33.069 0 0120.895 9.602 108.71 108.71 0 0118.969 30.328 108.7 108.7 0 01-30.36-19.035zm0 0"/><path d="M440.012 115.027H316.523a111.976 111.976 0 0014.985-12.265c28.617-28.703 29.555-72.223 11.273-90.504s-61.785-17.36-90.52 11.289a156.964 156.964 0 00-28.25 43.351 156.766 156.766 0 00-28.269-43.375C167.04-5.094 123.523-6.03 105.238 12.25c-18.289 18.281-17.343 61.8 11.278 90.512a112.472 112.472 0 0014.984 12.265H8.012a8 8 0 00-8 8v80a8 8 0 008 8h16v232c.027 22.078 17.922 39.973 40 40h320c22.082-.027 39.976-17.922 40-40v-232h16a8 8 0 008-8v-80a8 8 0 00-8-8zm-176.43-80.175c22.992-22.922 56.527-22.657 67.895-11.29 11.367 11.368 11.64 44.887-11.282 67.887a133.973 133.973 0 01-35.496 23.578h-47.804v-.52c0-1.823-.137-3.671-.313-5.53-.066-.614-.137-1.223-.207-1.848a79.253 79.253 0 00-.684-4.59 97.68 97.68 0 00-.27-1.602c-.382-1.992-.8-3.953-1.28-5.847-.063-.274-.137-.512-.2-.8-.425-1.657-.863-3.2-1.312-4.798-.063-.219-.121-.457-.184-.676a152.526 152.526 0 0131.137-53.964zm-7.57 160.175h-64v-64h64zM127.836 91.457c-22.926-23-22.656-56.52-11.285-67.894 11.367-11.375 44.887-11.641 67.87 11.265a153.67 153.67 0 0132 56.39c.903 2.81 1.599 5.505 2.255 8.122.183.75.336 1.476.496 2.215a78.264 78.264 0 011.043 5.601c.086.606.2 1.23.27 1.82.253 1.997.39 4.008.41 6.02h-57.57a134.08 134.08 0 01-35.49-23.539zm-111.824 39.57h160v64h-160zm24 312v-232h152v256h-128c-13.254 0-24-10.746-24-24zm168 24v-256h32v256zm200-24c0 13.254-10.742 24-24 24h-128v-256h152zm24-248h-160v-64h160zm0 0"/><path d="M253.508 109.531a8 8 0 002.273-.328 140.553 140.553 0 0053.078-29.09 45.283 45.283 0 0012.961-42.297 7.951 7.951 0 00-4.597-4.597 45.283 45.283 0 00-42.297 12.96 140.66 140.66 0 00-29.09 53.079 8.001 8.001 0 007.672 10.273zm32.73-52.039a33.183 33.183 0 0120.91-9.601 33.149 33.149 0 01-9.597 20.918 108.142 108.142 0 01-30.403 19.074 108.077 108.077 0 0119.09-30.39zm0 0"/></svg>