<?xml version="1.0" encoding="iso-8859-1"?>
<!-- Generator: Adobe Illustrator 19.0.0, SVG Export Plug-In . SVG Version: 6.00 Build 0)  -->
<svg version="1.1" id="Capa_1" xmlns="http://www.w3.org/2000/svg" xmlns:xlink="http://www.w3.org/1999/xlink" x="0px" y="0px"
	 viewBox="0 0 448 448" style="enable-background:new 0 0 448 448;" xml:space="preserve">
<g>
	<g>
		<path d="M335.952,239.824c-23.12-7.36-50.368-12.448-79.952-14.624V224V103.12c19.056-11.088,32-31.488,32-55.12
			c0-1.088,0-48,0-48H160v48c0,23.632,12.944,44.032,32,55.12V224v1.2c-29.648,2.192-56.784,7.36-80,14.8v80
			c0,30.672,16.256,95.872,112,128c96.256-32.128,112-96.672,112-128L335.952,239.824z M176,16h96v16h-96V16z M176,48h96
			c0,26.464-21.536,48-48,48S176,74.464,176,48z M208,208v-98.256c5.136,1.328,10.448,2.256,16,2.256s10.864-0.928,16-2.256V208H208
			z M240,224v16.88c0,28.88,0,52.624-16,72.496c-16-19.872-16-43.616-16-72.496V224H240z M320,320
			c0,18.208-7.024,79.232-95.984,111.072C135.024,399.072,128,338.176,128,320v-68.064c19.504-5.328,40.992-8.864,64-10.64
			c0,35.616,0.128,68.16,32,94.704c31.888-26.544,32-59.104,32-94.736c22.768,1.744,44.656,5.328,64,10.544V320z"/>
	</g>
</g>
<g>
</g>
<g>
</g>
<g>
</g>
<g>
</g>
<g>
</g>
<g>
</g>
<g>
</g>
<g>
</g>
<g>
</g>
<g>
</g>
<g>
</g>
<g>
</g>
<g>
</g>
<g>
</g>
<g>
</g>
</svg>
