<?xml version="1.0" encoding="iso-8859-1"?>
<!-- Generator: Adobe Illustrator 19.0.0, SVG Export Plug-In . SVG Version: 6.00 Build 0)  -->
<svg version="1.1" id="Capa_1" xmlns="http://www.w3.org/2000/svg" xmlns:xlink="http://www.w3.org/1999/xlink" x="0px" y="0px"
	 viewBox="0 0 480 480" style="enable-background:new 0 0 480 480;" xml:space="preserve">
<g>
	<g>
		<path d="M384,267.998v-8c0-13.255-10.745-24-24-24c-13.228,0.066-23.934,10.772-24,24v8h-28.168
			c-4.391-5.386-9.442-10.2-15.032-14.328c-1.6-1.2-3.2-2.32-4.8-3.352v-38.32h16c13.228-0.066,23.934-10.772,24-24
			c0-13.255-10.745-24-24-24h-32v-16h16c4.418,0,8-3.582,8-8v-24h48c13.255,0,24-10.745,24-24s-10.745-24-24-24H136
			c-13.255,0-24,10.745-24,24s10.745,24,24,24h48v24c0,4.418,3.582,8,8,8h16v16h-32c-13.228,0.066-23.934,10.772-24,24
			c0,13.255,10.745,24,24,24h16v38.32c-1.6,1.032-3.2,2.136-4.744,3.32c-5.614,4.132-10.683,8.957-15.088,14.36H144v-8
			c-0.066-13.228-10.772-23.934-24-24c-13.255,0-24,10.745-24,24v8H0v112h96v8c0,13.255,10.745,24,24,24s24-10.745,24-24v-8h28.184
			c30.847,37.454,86.216,42.809,123.67,11.962c4.363-3.593,8.369-7.599,11.962-11.962H336v8c0,13.255,10.745,24,24,24
			s24-10.745,24-24v-8h96v-112H384z M96,363.998H16v-80h80V363.998z M128,387.998c0,4.418-3.582,8-8,8s-8-3.582-8-8v-128
			c0-4.418,3.582-8,8-8c2.156-0.007,4.218,0.879,5.696,2.448c1.493,1.459,2.325,3.465,2.304,5.552V387.998z M136,99.998
			c-4.418,0-8-3.582-8-8s3.582-8,8-8h208c4.418,0,8,3.582,8,8s-3.582,8-8,8H136z M200,131.998v-16h80v16H200z M256,147.998v16h-32
			v-16H256z M176,195.998c-4.418,0-8-3.582-8-8c-0.007-2.156,0.879-4.218,2.448-5.696c1.459-1.493,3.465-2.325,5.552-2.304h128
			c4.418,0,8,3.582,8,8c0.007,2.156-0.879,4.218-2.448,5.696c-1.459,1.493-3.465,2.325-5.552,2.304H176z M336,363.998h-32.08
			c-2.518,0-4.889,1.186-6.4,3.2c-23.77,31.767-68.793,38.25-100.56,14.48c-5.493-4.111-10.37-8.987-14.48-14.48
			c-1.511-2.014-3.882-3.2-6.4-3.2H144v-80h32.08c2.528-0.013,4.901-1.22,6.4-3.256c5.816-7.72,13.137-14.181,21.52-18.992
			c2.483-1.433,4.009-4.085,4-6.952v-42.8h64v42.8c-0.008,2.867,1.517,5.519,4,6.952c2.5,1.446,4.904,3.049,7.2,4.8
			c5.43,3.998,10.226,8.794,14.224,14.224c1.499,2.036,3.872,3.243,6.4,3.256H336V363.998z M368,387.998c0,4.418-3.582,8-8,8
			s-8-3.582-8-8v-128c-0.007-2.156,0.879-4.218,2.448-5.696c1.459-1.493,3.465-2.325,5.552-2.304c4.418,0,8,3.582,8,8V387.998z
			 M464,363.998h-80v-80h80V363.998z"/>
	</g>
</g>
<g>
</g>
<g>
</g>
<g>
</g>
<g>
</g>
<g>
</g>
<g>
</g>
<g>
</g>
<g>
</g>
<g>
</g>
<g>
</g>
<g>
</g>
<g>
</g>
<g>
</g>
<g>
</g>
<g>
</g>
</svg>
